<?xml version="1.0" encoding="UTF-8" standalone="no"?>
<!DOCTYPE svg PUBLIC "-//W3C//DTD SVG 1.1//EN" "http://www.w3.org/Graphics/SVG/1.1/DTD/svg11.dtd">
<svg width="285px" height="100px" version="1.1" xmlns="http://www.w3.org/2000/svg" xmlns:xlink="http://www.w3.org/1999/xlink" xml:space="preserve" xmlns:serif="http://www.serif.com/" style="fill-rule:evenodd;clip-rule:evenodd;stroke-linejoin:round;stroke-miterlimit:2;">
    <rect id="BMI_2018_DTP_Spot_de" x="0" y="0" width="285" height="100" style="fill:none;"/>
    <g>
        <rect id="ArtBoard1" x="0" y="0" width="185" height="100" style="fill:none;"/>
        <rect id="Background" x="0" y="0" width="285" height="100" style="fill:white;"/>
        <path d="M23.532,16.953C23.572,16.621 23.596,16.278 23.596,15.928C23.596,15.737 23.597,15.515 23.574,15.263C26.529,15.221 29.121,13.092 29.121,10.643C29.121,9.398 28.309,8.457 27.85,7.895C27.953,7.873 28.057,7.849 28.162,7.824C28.595,8.201 29.823,9.539 29.823,11.228C29.823,14.165 26.887,16.892 23.532,16.953M20.555,6.722C20.5,6.395 20.375,6.098 20.185,5.843C20.196,5.544 20.319,5.257 20.801,5.493C20.54,5.76 20.741,6.233 20.741,6.233C20.741,6.233 21.275,5.985 21.164,5.633C21.956,5.822 21.386,6.886 20.555,6.722M19.868,8.231C19.763,7.792 19.537,7.341 19.251,7.001C18.99,6.693 18.559,6.327 17.977,6.327C17.712,6.327 17.267,6.451 16.984,6.571C16.878,6.378 16.672,5.914 16.672,5.705C16.672,5.49 17.036,5.272 17.731,5.272C19.261,5.272 20.175,5.963 20.175,7.123C20.175,7.531 20.013,7.901 19.868,8.231M23.798,27.953C23.976,27.953 24.062,27.981 24.165,28.02C24.606,29.218 26.304,31.48 26.375,31.576L26.39,31.597L26.415,31.591C26.832,31.524 27.895,31.364 28.785,31.364L28.805,31.364C28.902,31.364 29.012,31.364 29.081,31.432C29.139,31.49 29.167,31.591 29.167,31.735C29.167,31.956 29.074,32.334 28.961,32.495C28.65,32.156 28.144,32.003 27.334,32.003C27.091,32.003 26.803,32.076 26.648,32.117L26.584,32.131L26.511,32.15L26.978,32.617C27.699,33.338 28.322,33.959 28.322,34.373C28.322,34.622 28.079,34.947 27.856,35.091C27.807,34.333 27.042,33.318 26.296,32.75L26.233,32.703L26.221,32.97C26.21,33.151 26.194,33.422 26.194,33.713C26.194,35.156 26.047,35.375 25.547,35.375C25.47,35.375 25.353,35.353 25.281,35.326C25.562,34.978 25.674,34.518 25.674,33.711L25.669,33.339L25.665,33.04C25.665,32.709 25.699,32.464 25.725,32.267L25.74,32.156L25.662,32.145C25.427,32.113 24.993,32.054 24.661,32.054C23.947,32.054 23.464,32.119 23.114,32.448C22.883,32.261 22.645,31.939 22.645,31.736C22.645,31.435 22.832,31.411 23.078,31.411C23.203,31.411 23.319,31.429 23.479,31.448C23.786,31.494 24.247,31.563 25.197,31.563L25.257,31.563L25.238,31.505C24.997,30.815 24.336,29.813 23.276,28.524C23.371,28.179 23.464,27.953 23.798,27.953M14.642,31.505L14.623,31.563L14.682,31.563C15.631,31.563 16.094,31.494 16.401,31.448C16.561,31.429 16.677,31.411 16.801,31.411C17.046,31.411 17.234,31.435 17.234,31.736C17.234,31.939 16.997,32.261 16.767,32.448C16.416,32.119 15.932,32.054 15.22,32.054C14.887,32.054 14.451,32.113 14.218,32.145L14.181,32.15L14.139,32.156L14.153,32.267C14.181,32.464 14.215,32.709 14.215,33.04L14.211,33.339L14.206,33.711C14.206,34.518 14.317,34.978 14.601,35.326C14.526,35.353 14.409,35.375 14.332,35.375C13.831,35.375 13.686,35.156 13.686,33.713C13.686,33.422 13.671,33.151 13.66,32.97L13.646,32.702L13.583,32.75C12.839,33.318 12.071,34.333 12.025,35.091C11.801,34.947 11.558,34.622 11.558,34.373C11.558,33.959 12.181,33.338 12.901,32.617L13.368,32.15L13.232,32.117C13.076,32.076 12.789,32.003 12.544,32.003C11.736,32.003 11.231,32.156 10.919,32.495C10.806,32.334 10.712,31.956 10.712,31.735C10.712,31.591 10.741,31.49 10.798,31.432C10.868,31.364 10.978,31.364 11.074,31.364L11.095,31.364C11.985,31.364 13.05,31.524 13.465,31.591L13.49,31.597L13.505,31.576C13.577,31.48 15.274,29.218 15.716,28.02C15.817,27.981 15.904,27.953 16.082,27.953C16.416,27.953 16.509,28.179 16.606,28.524C15.544,29.813 14.882,30.815 14.642,31.505M10.057,11.228C10.057,9.539 11.286,8.201 11.719,7.824C11.823,7.849 11.927,7.873 12.031,7.895C11.571,8.457 10.758,9.398 10.758,10.643C10.758,13.117 13.401,15.264 16.393,15.264C16.374,15.476 16.364,15.699 16.364,15.928C16.364,16.293 16.385,16.633 16.42,16.953C13.036,16.932 10.057,14.186 10.057,11.228M32.754,16.437C34.273,18.838 35.461,18.798 37.255,18.798C35.771,17.66 34.789,16.203 34.32,15.458L31.547,11.021C31.277,9.651 30.569,8.37 29.507,7.416C29.864,7.282 30.161,7.139 30.339,7.004C28.528,7.004 26.734,6.085 25.746,6.085C25.111,6.085 24.704,6.464 24.704,6.966C24.744,7.525 25.319,8.093 26.382,8.093C26.623,8.093 26.931,8.062 27.269,8.005C27.844,8.807 28.309,9.533 28.309,10.568C28.309,12.51 25.986,14.024 23.642,14.024C23.508,14.024 23.382,14.018 23.25,14.009C23.038,13.528 22.331,12.719 22.331,11.8C22.331,10.256 23.338,8.996 23.338,7.467C23.338,6.516 22.875,5.928 22.697,5.683C22.985,5.416 23.299,5.088 23.374,4.863C23.206,4.936 23.007,4.944 22.718,4.944C21.594,4.944 20.678,4.652 19.785,4.652C19.275,4.652 19.138,4.81 19.138,4.959C19.138,5.014 19.146,5.071 19.161,5.097C18.971,5.023 18.793,4.974 18.581,4.936C18.317,4.885 18.034,4.86 17.731,4.86C16.646,4.86 16.26,5.315 16.26,5.705C16.26,6.034 16.52,6.636 16.815,7.096C17.237,6.883 17.746,6.739 17.977,6.739C18.554,6.739 19.066,7.287 19.337,7.937C18.95,7.984 18.876,8.001 18.484,8.001C17.427,8.001 16.708,7.623 16.56,7.623C16.546,7.623 16.518,7.63 16.518,7.654C16.518,7.802 16.818,8.194 17.408,8.409C18.186,8.693 19.352,8.812 19.546,8.845C19.546,8.879 19.349,9.246 19.128,9.318C19.082,9.332 19.045,9.334 18.99,9.322C18.177,9.162 17.951,9.094 16.92,8.702C16.889,8.69 16.869,8.71 16.869,8.742C16.869,9.15 17.925,10.05 18.871,10.396C18.081,11.404 17.095,12.436 16.629,14.009C16.497,14.018 16.37,14.024 16.238,14.024C13.893,14.024 11.571,12.51 11.571,10.568C11.571,9.533 12.035,8.807 12.611,8.005C12.949,8.062 13.256,8.093 13.497,8.093C14.561,8.093 15.136,7.525 15.177,6.966C15.177,6.464 14.77,6.085 14.134,6.085C13.146,6.085 11.353,7.004 9.539,7.004C9.719,7.139 10.015,7.282 10.371,7.416C9.311,8.37 8.602,9.651 8.332,11.021L5.559,15.458C5.092,16.203 4.108,17.66 2.623,18.798C4.417,18.798 5.607,18.838 7.125,16.437L8.547,14.162C8.653,14.457 8.782,14.745 8.934,15.027L6.107,19.551C5.636,20.301 4.661,21.746 3.17,22.891C4.965,22.891 6.154,22.932 7.672,20.533L10.106,16.636C10.288,16.83 10.48,17.02 10.681,17.201L7.247,22.699C6.775,23.451 5.805,24.893 4.312,26.036C6.107,26.036 7.296,26.079 8.813,23.678L12.161,18.317C12.382,18.457 12.608,18.592 12.842,18.719L8.754,25.26C8.282,26.012 7.312,27.449 5.819,28.597C7.613,28.597 8.802,28.638 10.321,26.239L14.529,19.502C14.779,19.597 15.031,19.689 15.287,19.771L10.532,27.382C10.067,28.124 9.075,29.587 7.598,30.719C9.391,30.719 10.582,30.76 12.099,28.361L17.168,20.25C17.219,20.258 17.27,20.266 17.32,20.276C17.458,20.715 17.555,21.124 17.555,21.532C17.555,24.081 15.882,26.332 13.874,28.07C14.003,28.127 14.227,28.146 14.433,28.146C14.848,28.146 15.115,28.124 15.304,28.091C14.838,29.148 13.838,30.514 13.334,31.22C12.677,31.101 11.721,31.01 11.095,31.01C10.44,31.01 10.365,31.392 10.365,31.735C10.365,32.329 10.644,32.802 10.968,33.066C11.089,32.762 11.334,32.356 12.544,32.356C12.568,32.356 12.609,32.359 12.665,32.363C12.313,32.756 11.205,33.652 11.205,34.373C11.205,34.85 11.728,35.567 12.418,35.567C12.378,35.412 12.382,35.271 12.382,35.165C12.382,34.58 12.9,33.897 13.337,33.419C13.324,33.562 13.331,33.547 13.331,33.713C13.331,35.093 13.456,35.728 14.332,35.728C14.762,35.728 15.059,35.492 15.161,35.421C14.592,34.898 14.562,34.485 14.562,33.711C14.564,33.51 14.565,33.313 14.568,33.041C14.569,32.863 14.567,32.629 14.538,32.46C14.851,32.417 14.979,32.417 15.22,32.417C15.22,32.417 16.465,32.317 16.766,32.966C17.104,32.656 17.595,32.218 17.595,31.736C17.595,31.417 17.443,31.057 16.801,31.057C16.558,31.057 15.794,31.205 15.155,31.205C15.327,30.824 16.091,29.706 16.754,28.895C16.855,29.209 17.01,29.549 17.357,29.828C17.406,29.306 17.712,27.655 18.527,26.69C18.622,27.342 18.75,28.011 18.75,29.421C18.75,32.853 17.925,35.387 16.174,35.871C16.402,36.266 16.884,36.624 17.384,36.624C18.025,36.624 18.373,35.899 18.729,35.215C18.914,35.719 19.426,36.956 19.939,36.956C20.452,36.956 20.965,35.719 21.151,35.215C21.505,35.899 21.855,36.624 22.496,36.624C22.995,36.624 23.477,36.266 23.706,35.871C21.954,35.387 21.128,32.853 21.128,29.421C21.128,28.011 21.256,27.342 21.351,26.69C22.168,27.655 22.475,29.306 22.521,29.828C22.869,29.549 23.027,29.209 23.126,28.895C23.787,29.706 24.552,30.824 24.724,31.205C24.085,31.205 23.32,31.057 23.078,31.057C22.438,31.057 22.287,31.417 22.287,31.736C22.287,32.218 22.777,32.656 23.115,32.966C23.414,32.317 24.661,32.417 24.661,32.417C24.901,32.417 25.028,32.417 25.343,32.46C25.313,32.629 25.312,32.863 25.313,33.041C25.316,33.313 25.316,33.51 25.318,33.711C25.318,34.485 25.288,34.898 24.719,35.421C24.821,35.492 25.117,35.728 25.547,35.728C26.424,35.728 26.55,35.093 26.55,33.713C26.55,33.547 26.554,33.562 26.542,33.419C26.98,33.897 27.497,34.58 27.497,35.165C27.497,35.271 27.503,35.412 27.46,35.567C28.151,35.567 28.676,34.85 28.676,34.373C28.676,33.652 27.569,32.756 27.213,32.363C27.271,32.359 27.312,32.356 27.334,32.356C28.546,32.356 28.791,32.762 28.912,33.066C29.235,32.802 29.514,32.329 29.514,31.735C29.514,31.392 29.44,31.01 28.785,31.01C28.159,31.01 27.204,31.101 26.545,31.22C26.04,30.514 25.043,29.148 24.576,28.091C24.764,28.124 25.033,28.146 25.447,28.146C25.654,28.146 25.877,28.127 26.006,28.07C23.998,26.332 22.325,24.081 22.325,21.532C22.325,21.124 22.421,20.715 22.559,20.276C22.608,20.266 22.662,20.258 22.712,20.25L27.781,28.361C29.298,30.76 30.489,30.719 32.281,30.719C30.804,29.587 29.812,28.124 29.348,27.382L24.591,19.771C24.849,19.689 25.103,19.597 25.352,19.502L29.559,26.239C31.077,28.638 32.267,28.597 34.061,28.597C32.568,27.449 31.598,26.012 31.126,25.26L27.039,18.719C27.271,18.592 27.497,18.457 27.717,18.317L31.067,23.678C32.585,26.079 33.773,26.036 35.567,26.036C34.074,24.893 33.106,23.451 32.633,22.699L29.198,17.201C29.4,17.02 29.593,16.83 29.772,16.636L32.209,20.533C33.726,22.932 34.915,22.891 36.709,22.891C35.217,21.746 34.245,20.301 33.773,19.551L30.947,15.027C31.098,14.745 31.227,14.457 31.334,14.162L32.754,16.437Z" style="fill-rule:nonzero;"/>
        <rect x="46.261" y="6.07" width="5.19" height="29.658" style="fill-rule:nonzero;"/>
        <rect x="46.261" y="35.728" width="5.19" height="29.658" style="fill:rgb(255,0,0);fill-rule:nonzero;"/>
        <rect x="46.261" y="65.386" width="5.19" height="29.658" style="fill:rgb(255,204,0);fill-rule:nonzero;"/>
        <g transform="matrix(1.47694,0,0,-1.47694,-30.9354,127.433)">
            <path d="M67.748,80.117C67.748,79.831 67.712,79.581 67.641,79.367C67.569,79.153 67.472,78.968 67.349,78.814C67.226,78.659 67.084,78.534 66.921,78.439C66.758,78.344 66.59,78.272 66.415,78.225L66.415,78.201C66.629,78.161 66.83,78.086 67.016,77.975C67.203,77.864 67.365,77.725 67.504,77.558C67.643,77.391 67.754,77.195 67.837,76.969C67.921,76.743 67.962,76.495 67.962,76.225C67.962,75.9 67.907,75.603 67.796,75.333C67.684,75.063 67.512,74.829 67.278,74.631C67.044,74.432 66.748,74.278 66.391,74.167C66.034,74.056 65.61,74 65.118,74L63.44,74L63.44,82.211L65.023,82.211C65.507,82.211 65.921,82.161 66.266,82.062C66.612,81.963 66.895,81.822 67.117,81.64C67.339,81.457 67.5,81.237 67.599,80.979C67.698,80.722 67.748,80.434 67.748,80.117ZM66.701,80.081C66.701,80.462 66.566,80.775 66.296,81.021C66.026,81.267 65.602,81.39 65.023,81.39L64.475,81.39L64.475,78.558L65.011,78.558C65.566,78.558 65.987,78.693 66.272,78.962C66.558,79.232 66.701,79.605 66.701,80.081ZM66.855,76.297C66.855,76.741 66.711,77.092 66.421,77.35C66.132,77.608 65.717,77.737 65.177,77.737L64.475,77.737L64.475,74.857L65.118,74.857C65.729,74.857 66.171,74.978 66.445,75.22C66.719,75.462 66.855,75.821 66.855,76.297ZM73.234,74L72.353,74L72.353,74.643L72.329,74.643C72.306,74.595 72.254,74.526 72.175,74.434C72.095,74.343 71.994,74.256 71.871,74.173C71.748,74.089 71.6,74.016 71.425,73.952C71.251,73.889 71.056,73.857 70.842,73.857C70.588,73.857 70.36,73.895 70.158,73.97C69.955,74.046 69.783,74.167 69.64,74.333C69.497,74.5 69.388,74.716 69.313,74.982C69.237,75.248 69.2,75.575 69.2,75.964L69.2,79.712L70.164,79.712L70.164,76.035C70.164,75.559 70.241,75.22 70.396,75.017C70.55,74.815 70.79,74.714 71.116,74.714C71.393,74.714 71.627,74.783 71.818,74.922C72.008,75.061 72.159,75.198 72.27,75.333L72.27,79.712L73.234,79.712L73.234,74ZM77.827,74L77.827,77.677C77.827,78.161 77.746,78.508 77.583,78.718C77.421,78.929 77.173,79.034 76.84,79.034C76.554,79.034 76.316,78.962 76.126,78.82C75.935,78.677 75.784,78.538 75.673,78.403L75.673,74L74.709,74L74.709,79.712L75.59,79.712L75.59,79.069L75.614,79.069C75.638,79.117 75.689,79.186 75.769,79.278C75.848,79.369 75.951,79.456 76.078,79.54C76.205,79.623 76.356,79.696 76.53,79.76C76.705,79.823 76.903,79.855 77.125,79.855C77.379,79.855 77.609,79.817 77.815,79.742C78.022,79.666 78.196,79.545 78.339,79.379C78.482,79.212 78.593,78.996 78.672,78.73C78.751,78.465 78.791,78.137 78.791,77.749L78.791,74L77.827,74ZM79.969,76.773C79.969,77.352 80.045,77.836 80.195,78.225C80.346,78.613 80.54,78.927 80.778,79.165C81.016,79.403 81.286,79.571 81.588,79.67C81.889,79.769 82.191,79.819 82.492,79.819C82.675,79.819 82.833,79.805 82.968,79.777C83.103,79.75 83.214,79.716 83.301,79.676L83.301,82.413L84.265,82.52L84.265,74L83.385,74L83.385,74.607L83.361,74.607C83.337,74.559 83.293,74.494 83.23,74.411C83.166,74.327 83.079,74.244 82.968,74.161C82.857,74.077 82.718,74.006 82.552,73.946C82.385,73.887 82.191,73.857 81.968,73.857C81.699,73.857 81.443,73.911 81.201,74.018C80.959,74.125 80.747,74.296 80.564,74.53C80.382,74.764 80.237,75.065 80.13,75.434C80.023,75.803 79.969,76.249 79.969,76.773ZM82.23,74.714C82.381,74.714 82.516,74.734 82.635,74.774C82.754,74.813 82.857,74.863 82.944,74.922C83.031,74.982 83.105,75.043 83.164,75.107C83.224,75.17 83.269,75.226 83.301,75.273L83.301,78.796C83.214,78.851 83.113,78.899 82.998,78.939C82.883,78.978 82.738,78.998 82.563,78.998C82.341,78.998 82.133,78.96 81.939,78.885C81.744,78.81 81.576,78.685 81.433,78.51C81.29,78.336 81.177,78.11 81.094,77.832C81.01,77.554 80.969,77.213 80.969,76.808C80.969,76.412 81.003,76.081 81.07,75.815C81.137,75.549 81.231,75.335 81.35,75.172C81.469,75.01 81.604,74.893 81.754,74.821C81.905,74.75 82.064,74.714 82.23,74.714ZM89.406,77.784C89.406,77.538 89.398,77.326 89.382,77.148C89.366,76.969 89.35,76.812 89.335,76.678L86.419,76.678C86.451,76.003 86.596,75.507 86.853,75.19C87.111,74.873 87.482,74.714 87.966,74.714C88.133,74.714 88.283,74.734 88.418,74.774C88.553,74.813 88.67,74.861 88.769,74.916C88.868,74.972 88.952,75.027 89.019,75.083C89.087,75.138 89.136,75.182 89.168,75.214L89.525,74.536C89.485,74.496 89.426,74.438 89.346,74.363C89.267,74.288 89.16,74.212 89.025,74.137C88.89,74.062 88.724,73.996 88.525,73.941C88.327,73.885 88.093,73.857 87.823,73.857C87.466,73.857 87.143,73.917 86.853,74.036C86.564,74.155 86.318,74.339 86.116,74.589C85.913,74.839 85.757,75.156 85.646,75.541C85.534,75.926 85.479,76.388 85.479,76.927C85.479,77.435 85.536,77.874 85.652,78.242C85.766,78.611 85.923,78.915 86.122,79.153C86.32,79.391 86.55,79.567 86.812,79.682C87.074,79.797 87.355,79.855 87.657,79.855C88.204,79.855 88.632,79.682 88.942,79.337C89.251,78.992 89.406,78.474 89.406,77.784ZM87.597,79.069C87.256,79.069 86.982,78.927 86.776,78.641C86.57,78.355 86.451,77.943 86.419,77.403L88.501,77.403C88.509,77.443 88.515,77.501 88.519,77.576C88.523,77.651 88.525,77.733 88.525,77.82C88.525,78.217 88.446,78.524 88.287,78.742C88.129,78.96 87.899,79.069 87.597,79.069ZM93.154,78.558C93.091,78.629 92.976,78.726 92.809,78.849C92.643,78.972 92.425,79.034 92.155,79.034C91.901,79.034 91.707,78.974 91.572,78.855C91.437,78.736 91.369,78.593 91.369,78.427C91.369,78.213 91.431,78.036 91.554,77.897C91.677,77.758 91.865,77.61 92.119,77.451L92.476,77.237C92.865,77.007 93.17,76.759 93.392,76.493C93.615,76.227 93.726,75.884 93.726,75.464C93.726,75.012 93.569,74.631 93.256,74.321C92.942,74.012 92.492,73.857 91.905,73.857C91.675,73.857 91.473,73.881 91.298,73.929C91.124,73.976 90.971,74.032 90.84,74.095C90.709,74.159 90.6,74.228 90.513,74.303C90.425,74.379 90.354,74.448 90.298,74.512L90.763,75.273C90.81,75.226 90.868,75.17 90.935,75.107C91.003,75.043 91.084,74.982 91.179,74.922C91.274,74.863 91.381,74.813 91.5,74.774C91.619,74.734 91.758,74.714 91.917,74.714C92.202,74.714 92.421,74.778 92.571,74.904C92.722,75.031 92.797,75.186 92.797,75.369C92.797,75.503 92.78,75.62 92.744,75.72C92.708,75.819 92.655,75.908 92.583,75.987C92.512,76.067 92.425,76.142 92.321,76.213C92.218,76.285 92.099,76.364 91.964,76.451L91.607,76.678C91.25,76.908 90.971,77.15 90.769,77.403C90.566,77.657 90.465,77.983 90.465,78.379C90.465,78.593 90.507,78.79 90.59,78.968C90.673,79.147 90.79,79.301 90.941,79.432C91.092,79.563 91.268,79.666 91.471,79.742C91.673,79.817 91.889,79.855 92.119,79.855C92.341,79.855 92.532,79.833 92.69,79.789C92.849,79.746 92.986,79.69 93.101,79.623C93.216,79.555 93.311,79.488 93.387,79.421C93.462,79.353 93.523,79.296 93.571,79.248L93.154,78.558ZM97.855,74L97.855,77.677C97.855,78.145 97.787,78.482 97.653,78.689C97.518,78.895 97.3,78.998 96.998,78.998C96.839,78.998 96.699,78.978 96.576,78.939C96.453,78.899 96.344,78.849 96.248,78.79C96.153,78.73 96.07,78.665 95.999,78.593C95.927,78.522 95.868,78.459 95.82,78.403L95.82,74L94.856,74L94.856,79.712L95.737,79.712L95.737,79.069L95.76,79.069C95.8,79.133 95.86,79.21 95.939,79.301C96.018,79.393 96.118,79.48 96.237,79.563C96.356,79.647 96.494,79.716 96.653,79.772C96.812,79.827 96.99,79.855 97.189,79.855C97.839,79.855 98.299,79.601 98.569,79.093C98.624,79.173 98.7,79.258 98.795,79.349C98.89,79.44 99.001,79.524 99.128,79.599C99.255,79.674 99.398,79.736 99.557,79.783C99.715,79.831 99.89,79.855 100.08,79.855C101.239,79.855 101.818,79.181 101.818,77.832L101.818,74L100.854,74L100.854,77.677C100.854,78.145 100.77,78.482 100.604,78.689C100.437,78.895 100.191,78.998 99.866,78.998C99.596,78.998 99.372,78.933 99.194,78.802C99.015,78.671 98.874,78.546 98.771,78.427C98.787,78.34 98.799,78.246 98.807,78.147C98.815,78.048 98.819,77.943 98.819,77.832L98.819,74L97.855,74ZM104.221,74L103.257,74L103.257,79.712L104.221,79.712L104.221,74ZM103.745,81.092C103.547,81.092 103.388,81.156 103.269,81.283C103.15,81.41 103.091,81.576 103.091,81.783C103.091,81.981 103.15,82.144 103.269,82.271C103.388,82.397 103.547,82.461 103.745,82.461C103.936,82.461 104.091,82.397 104.21,82.271C104.329,82.144 104.388,81.981 104.388,81.783C104.388,81.576 104.329,81.41 104.21,81.283C104.091,81.156 103.936,81.092 103.745,81.092ZM108.815,74L108.815,77.677C108.815,78.161 108.734,78.508 108.571,78.718C108.408,78.929 108.16,79.034 107.827,79.034C107.542,79.034 107.304,78.962 107.113,78.82C106.923,78.677 106.772,78.538 106.661,78.403L106.661,74L105.697,74L105.697,79.712L106.578,79.712L106.578,79.069L106.601,79.069C106.625,79.117 106.677,79.186 106.756,79.278C106.835,79.369 106.939,79.456 107.066,79.54C107.192,79.623 107.343,79.696 107.518,79.76C107.692,79.823 107.891,79.855 108.113,79.855C108.367,79.855 108.597,79.817 108.803,79.742C109.009,79.666 109.184,79.545 109.327,79.379C109.469,79.212 109.58,78.996 109.66,78.73C109.739,78.465 109.779,78.137 109.779,77.749L109.779,74L108.815,74ZM112.183,74L111.219,74L111.219,79.712L112.183,79.712L112.183,74ZM111.707,81.092C111.508,81.092 111.35,81.156 111.231,81.283C111.112,81.41 111.052,81.576 111.052,81.783C111.052,81.981 111.112,82.144 111.231,82.271C111.35,82.397 111.508,82.461 111.707,82.461C111.897,82.461 112.052,82.397 112.171,82.271C112.29,82.144 112.349,81.981 112.349,81.783C112.349,81.576 112.29,81.41 112.171,81.283C112.052,81.156 111.897,81.092 111.707,81.092ZM116.121,78.558C116.058,78.629 115.943,78.726 115.776,78.849C115.61,78.972 115.391,79.034 115.122,79.034C114.868,79.034 114.674,78.974 114.539,78.855C114.404,78.736 114.336,78.593 114.336,78.427C114.336,78.213 114.398,78.036 114.521,77.897C114.644,77.758 114.832,77.61 115.086,77.451L115.443,77.237C115.832,77.007 116.137,76.759 116.359,76.493C116.582,76.227 116.693,75.884 116.693,75.464C116.693,75.012 116.536,74.631 116.223,74.321C115.909,74.012 115.459,73.857 114.872,73.857C114.642,73.857 114.44,73.881 114.265,73.929C114.091,73.976 113.938,74.032 113.807,74.095C113.676,74.159 113.567,74.228 113.48,74.303C113.392,74.379 113.321,74.448 113.265,74.512L113.73,75.273C113.777,75.226 113.835,75.17 113.902,75.107C113.97,75.043 114.051,74.982 114.146,74.922C114.241,74.863 114.348,74.813 114.467,74.774C114.586,74.734 114.725,74.714 114.884,74.714C115.169,74.714 115.388,74.778 115.538,74.904C115.689,75.031 115.764,75.186 115.764,75.369C115.764,75.503 115.747,75.62 115.711,75.72C115.675,75.819 115.622,75.908 115.55,75.987C115.479,76.067 115.391,76.142 115.288,76.213C115.185,76.285 115.066,76.364 114.931,76.451L114.574,76.678C114.217,76.908 113.938,77.15 113.736,77.403C113.533,77.657 113.432,77.983 113.432,78.379C113.432,78.593 113.474,78.79 113.557,78.968C113.64,79.147 113.757,79.301 113.908,79.432C114.059,79.563 114.235,79.666 114.438,79.742C114.64,79.817 114.856,79.855 115.086,79.855C115.308,79.855 115.499,79.833 115.657,79.789C115.816,79.746 115.953,79.69 116.068,79.623C116.183,79.555 116.278,79.488 116.354,79.421C116.429,79.353 116.49,79.296 116.538,79.248L116.121,78.558ZM120.263,78.927L119.013,78.927L119.013,75.761C119.013,75.357 119.065,75.081 119.168,74.934C119.271,74.787 119.446,74.714 119.691,74.714C119.834,74.714 119.957,74.734 120.06,74.774C120.163,74.813 120.239,74.849 120.286,74.881L120.417,74.107C120.378,74.075 120.282,74.026 120.132,73.958C119.981,73.891 119.779,73.857 119.525,73.857C119.033,73.857 118.664,73.994 118.418,74.268C118.172,74.541 118.049,74.996 118.049,75.63L118.049,78.927L117.359,78.927L117.359,79.569L118.049,79.712L118.156,81.307L119.013,81.307L119.013,79.712L120.382,79.712L120.263,78.927ZM124.939,77.784C124.939,77.538 124.931,77.326 124.915,77.148C124.9,76.969 124.884,76.812 124.868,76.678L121.952,76.678C121.984,76.003 122.129,75.507 122.387,75.19C122.645,74.873 123.016,74.714 123.499,74.714C123.666,74.714 123.817,74.734 123.952,74.774C124.087,74.813 124.204,74.861 124.303,74.916C124.402,74.972 124.485,75.027 124.553,75.083C124.62,75.138 124.67,75.182 124.701,75.214L125.058,74.536C125.019,74.496 124.959,74.438 124.88,74.363C124.801,74.288 124.693,74.212 124.558,74.137C124.424,74.062 124.257,73.996 124.059,73.941C123.86,73.885 123.626,73.857 123.357,73.857C123,73.857 122.676,73.917 122.387,74.036C122.097,74.155 121.851,74.339 121.649,74.589C121.447,74.839 121.29,75.156 121.179,75.541C121.068,75.926 121.012,76.388 121.012,76.927C121.012,77.435 121.07,77.874 121.185,78.242C121.3,78.611 121.457,78.915 121.655,79.153C121.853,79.391 122.083,79.567 122.345,79.682C122.607,79.797 122.888,79.855 123.19,79.855C123.737,79.855 124.166,79.682 124.475,79.337C124.785,78.992 124.939,78.474 124.939,77.784ZM123.131,79.069C122.789,79.069 122.516,78.927 122.309,78.641C122.103,78.355 121.984,77.943 121.952,77.403L124.035,77.403C124.043,77.443 124.049,77.501 124.053,77.576C124.057,77.651 124.059,77.733 124.059,77.82C124.059,78.217 123.979,78.524 123.821,78.742C123.662,78.96 123.432,79.069 123.131,79.069ZM128.735,78.867C128.712,78.883 128.66,78.903 128.581,78.927C128.501,78.95 128.394,78.962 128.259,78.962C127.958,78.962 127.722,78.881 127.551,78.718C127.381,78.556 127.26,78.379 127.188,78.189L127.188,74L126.225,74L126.225,79.712L127.105,79.712L127.105,78.939L127.129,78.939C127.169,79.05 127.22,79.159 127.284,79.266C127.347,79.373 127.426,79.468 127.522,79.551C127.617,79.635 127.73,79.7 127.861,79.748C127.992,79.795 128.148,79.819 128.331,79.819C128.466,79.819 128.575,79.807 128.658,79.783C128.741,79.76 128.807,79.74 128.854,79.724L128.735,78.867ZM130.651,74L129.687,74L129.687,79.712L130.651,79.712L130.651,74ZM130.175,81.092C129.977,81.092 129.818,81.156 129.699,81.283C129.58,81.41 129.521,81.576 129.521,81.783C129.521,81.981 129.58,82.144 129.699,82.271C129.818,82.397 129.977,82.461 130.175,82.461C130.366,82.461 130.52,82.397 130.639,82.271C130.758,82.144 130.818,81.981 130.818,81.783C130.818,81.576 130.758,81.41 130.639,81.283C130.52,81.156 130.366,81.092 130.175,81.092ZM136.125,74L135.245,74L135.245,74.643L135.221,74.643C135.197,74.595 135.146,74.526 135.066,74.434C134.987,74.343 134.886,74.256 134.763,74.173C134.64,74.089 134.491,74.016 134.317,73.952C134.142,73.889 133.948,73.857 133.733,73.857C133.48,73.857 133.252,73.895 133.049,73.97C132.847,74.046 132.674,74.167 132.532,74.333C132.389,74.5 132.28,74.716 132.204,74.982C132.129,75.248 132.091,75.575 132.091,75.964L132.091,79.712L133.055,79.712L133.055,76.035C133.055,75.559 133.133,75.22 133.287,75.017C133.442,74.815 133.682,74.714 134.007,74.714C134.285,74.714 134.519,74.783 134.709,74.922C134.9,75.061 135.05,75.198 135.161,75.333L135.161,79.712L136.125,79.712L136.125,74ZM140.6,74L140.6,77.677C140.6,78.145 140.532,78.482 140.397,78.689C140.263,78.895 140.044,78.998 139.743,78.998C139.584,78.998 139.443,78.978 139.321,78.939C139.198,78.899 139.088,78.849 138.993,78.79C138.898,78.73 138.815,78.665 138.743,78.593C138.672,78.522 138.612,78.459 138.565,78.403L138.565,74L137.601,74L137.601,79.712L138.482,79.712L138.482,79.069L138.505,79.069C138.545,79.133 138.605,79.21 138.684,79.301C138.763,79.393 138.862,79.48 138.981,79.563C139.1,79.647 139.239,79.716 139.398,79.772C139.557,79.827 139.735,79.855 139.933,79.855C140.584,79.855 141.044,79.601 141.314,79.093C141.369,79.173 141.445,79.258 141.54,79.349C141.635,79.44 141.746,79.524 141.873,79.599C142,79.674 142.143,79.736 142.301,79.783C142.46,79.831 142.635,79.855 142.825,79.855C143.983,79.855 144.562,79.181 144.562,77.832L144.562,74L143.599,74L143.599,77.677C143.599,78.145 143.515,78.482 143.349,78.689C143.182,78.895 142.936,78.998 142.611,78.998C142.341,78.998 142.117,78.933 141.939,78.802C141.76,78.671 141.619,78.546 141.516,78.427C141.532,78.34 141.544,78.246 141.552,78.147C141.56,78.048 141.564,77.943 141.564,77.832L141.564,74L140.6,74ZM62.976,64.773C62.976,65.352 63.051,65.836 63.202,66.225C63.353,66.613 63.547,66.927 63.785,67.165C64.023,67.403 64.293,67.571 64.594,67.67C64.896,67.769 65.197,67.819 65.499,67.819C65.681,67.819 65.84,67.805 65.975,67.777C66.11,67.75 66.221,67.716 66.308,67.676L66.308,70.413L67.272,70.52L67.272,62L66.391,62L66.391,62.607L66.368,62.607C66.344,62.559 66.3,62.494 66.237,62.411C66.173,62.327 66.086,62.244 65.975,62.161C65.864,62.077 65.725,62.006 65.558,61.946C65.392,61.887 65.197,61.857 64.975,61.857C64.706,61.857 64.45,61.911 64.208,62.018C63.966,62.125 63.754,62.295 63.571,62.53C63.389,62.764 63.244,63.065 63.137,63.434C63.03,63.803 62.976,64.249 62.976,64.773ZM65.237,62.714C65.388,62.714 65.523,62.734 65.642,62.774C65.761,62.813 65.864,62.863 65.951,62.922C66.038,62.982 66.112,63.043 66.171,63.107C66.231,63.17 66.276,63.226 66.308,63.273L66.308,66.796C66.221,66.851 66.12,66.899 66.005,66.939C65.89,66.978 65.745,66.998 65.57,66.998C65.348,66.998 65.14,66.96 64.945,66.885C64.751,66.81 64.582,66.685 64.44,66.51C64.297,66.336 64.184,66.11 64.101,65.832C64.017,65.554 63.976,65.213 63.976,64.808C63.976,64.412 64.009,64.081 64.077,63.815C64.144,63.549 64.237,63.335 64.356,63.172C64.475,63.01 64.61,62.893 64.761,62.821C64.912,62.75 65.07,62.714 65.237,62.714ZM72.413,65.784C72.413,65.538 72.405,65.326 72.389,65.148C72.373,64.969 72.357,64.812 72.341,64.677L69.426,64.677C69.458,64.003 69.602,63.507 69.86,63.19C70.118,62.873 70.489,62.714 70.973,62.714C71.139,62.714 71.29,62.734 71.425,62.774C71.56,62.813 71.677,62.861 71.776,62.916C71.875,62.972 71.959,63.027 72.026,63.083C72.093,63.138 72.143,63.182 72.175,63.214L72.532,62.536C72.492,62.496 72.433,62.438 72.353,62.363C72.274,62.288 72.167,62.212 72.032,62.137C71.897,62.062 71.73,61.996 71.532,61.941C71.334,61.885 71.1,61.857 70.83,61.857C70.473,61.857 70.15,61.917 69.86,62.036C69.571,62.155 69.325,62.339 69.122,62.589C68.92,62.839 68.763,63.156 68.652,63.541C68.541,63.926 68.486,64.388 68.486,64.927C68.486,65.435 68.543,65.874 68.658,66.242C68.773,66.611 68.93,66.915 69.128,67.153C69.327,67.391 69.557,67.567 69.819,67.682C70.08,67.797 70.362,67.855 70.663,67.855C71.211,67.855 71.639,67.682 71.949,67.337C72.258,66.992 72.413,66.474 72.413,65.784ZM70.604,67.069C70.263,67.069 69.989,66.927 69.783,66.641C69.577,66.355 69.458,65.943 69.426,65.403L71.508,65.403C71.516,65.443 71.522,65.501 71.526,65.576C71.53,65.651 71.532,65.733 71.532,65.82C71.532,66.217 71.453,66.524 71.294,66.742C71.135,66.96 70.905,67.069 70.604,67.069ZM76.161,66.558C76.098,66.629 75.983,66.726 75.816,66.849C75.65,66.972 75.431,67.034 75.162,67.034C74.908,67.034 74.713,66.974 74.579,66.855C74.444,66.736 74.376,66.593 74.376,66.427C74.376,66.213 74.438,66.036 74.561,65.897C74.684,65.758 74.872,65.61 75.126,65.451L75.483,65.237C75.872,65.007 76.177,64.759 76.399,64.493C76.621,64.227 76.732,63.884 76.732,63.464C76.732,63.012 76.576,62.631 76.262,62.321C75.949,62.012 75.499,61.857 74.912,61.857C74.682,61.857 74.479,61.881 74.305,61.929C74.13,61.976 73.978,62.032 73.847,62.095C73.716,62.159 73.607,62.228 73.519,62.303C73.432,62.379 73.361,62.448 73.305,62.512L73.769,63.273C73.817,63.226 73.874,63.17 73.942,63.107C74.009,63.043 74.091,62.982 74.186,62.922C74.281,62.863 74.388,62.813 74.507,62.774C74.626,62.734 74.765,62.714 74.924,62.714C75.209,62.714 75.427,62.778 75.578,62.904C75.729,63.031 75.804,63.186 75.804,63.368C75.804,63.503 75.786,63.62 75.751,63.72C75.715,63.819 75.661,63.908 75.59,63.987C75.519,64.067 75.431,64.142 75.328,64.213C75.225,64.285 75.106,64.364 74.971,64.451L74.614,64.677C74.257,64.908 73.978,65.15 73.775,65.403C73.573,65.657 73.472,65.983 73.472,66.379C73.472,66.593 73.513,66.79 73.597,66.968C73.68,67.147 73.797,67.301 73.948,67.432C74.099,67.563 74.275,67.666 74.477,67.742C74.68,67.817 74.896,67.855 75.126,67.855C75.348,67.855 75.538,67.833 75.697,67.789C75.856,67.746 75.993,67.69 76.108,67.623C76.223,67.555 76.318,67.488 76.393,67.421C76.469,67.353 76.53,67.296 76.578,67.248L76.161,66.558ZM81.004,69.497L80.136,69.497L80.136,70.211L82.909,70.211L82.909,69.497L82.04,69.497L82.04,62.75L82.932,62.75L82.932,62L80.112,62L80.112,62.75L81.004,62.75L81.004,69.497ZM87.193,62L87.193,65.677C87.193,66.161 87.111,66.508 86.949,66.718C86.786,66.929 86.538,67.034 86.205,67.034C85.919,67.034 85.681,66.962 85.491,66.82C85.3,66.677 85.15,66.538 85.039,66.403L85.039,62L84.075,62L84.075,67.712L84.955,67.712L84.955,67.069L84.979,67.069C85.003,67.117 85.055,67.186 85.134,67.278C85.213,67.369 85.316,67.456 85.443,67.54C85.57,67.623 85.721,67.696 85.895,67.76C86.07,67.823 86.268,67.855 86.49,67.855C86.744,67.855 86.974,67.817 87.181,67.742C87.387,67.666 87.561,67.545 87.704,67.379C87.847,67.212 87.958,66.996 88.037,66.73C88.117,66.465 88.156,66.137 88.156,65.749L88.156,62L87.193,62ZM92.714,62L92.714,65.677C92.714,66.161 92.633,66.508 92.47,66.718C92.308,66.929 92.06,67.034 91.726,67.034C91.441,67.034 91.203,66.962 91.012,66.82C90.822,66.677 90.671,66.538 90.56,66.403L90.56,62L89.596,62L89.596,67.712L90.477,67.712L90.477,67.069L90.501,67.069C90.525,67.117 90.576,67.186 90.655,67.278C90.735,67.369 90.838,67.456 90.965,67.54C91.092,67.623 91.243,67.696 91.417,67.76C91.592,67.823 91.79,67.855 92.012,67.855C92.266,67.855 92.496,67.817 92.702,67.742C92.909,67.666 93.083,67.545 93.226,67.379C93.369,67.212 93.48,66.996 93.559,66.73C93.638,66.465 93.678,66.137 93.678,65.749L93.678,62L92.714,62ZM98.783,65.784C98.783,65.538 98.775,65.326 98.759,65.148C98.743,64.969 98.728,64.812 98.712,64.677L95.796,64.677C95.828,64.003 95.973,63.507 96.231,63.19C96.488,62.873 96.859,62.714 97.343,62.714C97.51,62.714 97.661,62.734 97.795,62.774C97.93,62.813 98.047,62.861 98.147,62.916C98.246,62.972 98.329,63.027 98.396,63.083C98.464,63.138 98.513,63.182 98.545,63.214L98.902,62.536C98.862,62.496 98.803,62.438 98.724,62.363C98.644,62.288 98.537,62.212 98.402,62.137C98.267,62.062 98.101,61.996 97.903,61.941C97.704,61.885 97.47,61.857 97.2,61.857C96.843,61.857 96.52,61.917 96.231,62.036C95.941,62.155 95.695,62.339 95.493,62.589C95.29,62.839 95.134,63.156 95.023,63.541C94.912,63.926 94.856,64.388 94.856,64.927C94.856,65.435 94.914,65.874 95.029,66.242C95.144,66.611 95.3,66.915 95.499,67.153C95.697,67.391 95.927,67.567 96.189,67.682C96.451,67.797 96.732,67.855 97.034,67.855C97.581,67.855 98.01,67.682 98.319,67.337C98.628,66.992 98.783,66.474 98.783,65.784ZM96.974,67.069C96.633,67.069 96.36,66.927 96.153,66.641C95.947,66.355 95.828,65.943 95.796,65.403L97.879,65.403C97.887,65.443 97.893,65.501 97.897,65.576C97.9,65.651 97.903,65.733 97.903,65.82C97.903,66.217 97.823,66.524 97.665,66.742C97.506,66.96 97.276,67.069 96.974,67.069ZM102.579,66.867C102.555,66.883 102.504,66.903 102.424,66.927C102.345,66.95 102.238,66.962 102.103,66.962C101.802,66.962 101.566,66.881 101.395,66.718C101.225,66.556 101.104,66.379 101.032,66.189L101.032,62L100.068,62L100.068,67.712L100.949,67.712L100.949,66.939L100.973,66.939C101.012,67.05 101.064,67.159 101.127,67.266C101.191,67.373 101.27,67.468 101.365,67.551C101.461,67.635 101.574,67.7 101.705,67.748C101.836,67.795 101.992,67.819 102.175,67.819C102.31,67.819 102.419,67.807 102.502,67.783C102.585,67.76 102.651,67.74 102.698,67.724L102.579,66.867ZM106.649,62L106.649,65.677C106.649,66.161 106.568,66.508 106.405,66.718C106.242,66.929 105.995,67.034 105.661,67.034C105.376,67.034 105.138,66.962 104.947,66.82C104.757,66.677 104.606,66.538 104.495,66.403L104.495,62L103.531,62L103.531,67.712L104.412,67.712L104.412,67.069L104.436,67.069C104.459,67.117 104.511,67.186 104.59,67.278C104.67,67.369 104.773,67.456 104.9,67.54C105.027,67.623 105.177,67.696 105.352,67.76C105.526,67.823 105.725,67.855 105.947,67.855C106.201,67.855 106.431,67.817 106.637,67.742C106.843,67.666 107.018,67.545 107.161,67.379C107.304,67.212 107.415,66.996 107.494,66.73C107.573,66.465 107.613,66.137 107.613,65.749L107.613,62L106.649,62ZM67.236,50L66.356,50L66.356,50.643L66.332,50.643C66.308,50.595 66.256,50.526 66.177,50.434C66.098,50.343 65.997,50.256 65.874,50.173C65.751,50.089 65.602,50.016 65.427,49.952C65.253,49.889 65.058,49.857 64.844,49.857C64.59,49.857 64.362,49.895 64.16,49.97C63.958,50.046 63.785,50.167 63.642,50.333C63.5,50.5 63.391,50.716 63.315,50.982C63.24,51.248 63.202,51.575 63.202,51.964L63.202,55.712L64.166,55.712L64.166,52.035C64.166,51.559 64.243,51.22 64.398,51.017C64.553,50.815 64.793,50.714 65.118,50.714C65.396,50.714 65.63,50.783 65.82,50.922C66.01,51.061 66.161,51.198 66.272,51.333L66.272,55.712L67.236,55.712L67.236,50ZM71.83,50L71.83,53.677C71.83,54.161 71.748,54.508 71.586,54.718C71.423,54.929 71.175,55.034 70.842,55.034C70.556,55.034 70.318,54.962 70.128,54.82C69.938,54.677 69.787,54.538 69.676,54.403L69.676,50L68.712,50L68.712,55.712L69.592,55.712L69.592,55.069L69.616,55.069C69.64,55.117 69.692,55.186 69.771,55.278C69.85,55.369 69.953,55.456 70.08,55.539C70.207,55.623 70.358,55.696 70.533,55.76C70.707,55.823 70.905,55.855 71.128,55.855C71.381,55.855 71.611,55.817 71.818,55.742C72.024,55.666 72.199,55.545 72.341,55.379C72.484,55.212 72.595,54.996 72.675,54.73C72.754,54.465 72.794,54.137 72.794,53.749L72.794,50L71.83,50ZM73.972,52.773C73.972,53.352 74.047,53.836 74.198,54.225C74.348,54.613 74.543,54.927 74.781,55.165C75.019,55.403 75.289,55.571 75.59,55.67C75.891,55.77 76.193,55.819 76.494,55.819C76.677,55.819 76.836,55.805 76.97,55.777C77.105,55.75 77.216,55.716 77.304,55.676L77.304,58.413L78.268,58.52L78.268,50L77.387,50L77.387,50.607L77.363,50.607C77.339,50.559 77.296,50.494 77.232,50.411C77.169,50.327 77.082,50.244 76.97,50.161C76.859,50.077 76.721,50.006 76.554,49.946C76.387,49.887 76.193,49.857 75.971,49.857C75.701,49.857 75.445,49.911 75.203,50.018C74.961,50.125 74.749,50.295 74.567,50.53C74.384,50.764 74.239,51.065 74.132,51.434C74.025,51.803 73.972,52.249 73.972,52.773ZM76.233,50.714C76.383,50.714 76.518,50.734 76.637,50.774C76.756,50.813 76.859,50.863 76.947,50.922C77.034,50.982 77.107,51.043 77.167,51.107C77.226,51.17 77.272,51.226 77.304,51.273L77.304,54.796C77.216,54.851 77.115,54.899 77,54.939C76.885,54.978 76.74,54.998 76.566,54.998C76.344,54.998 76.135,54.96 75.941,54.885C75.747,54.81 75.578,54.685 75.435,54.51C75.293,54.336 75.18,54.109 75.096,53.832C75.013,53.554 74.971,53.213 74.971,52.808C74.971,52.412 75.005,52.081 75.072,51.815C75.14,51.549 75.233,51.335 75.352,51.172C75.471,51.01 75.606,50.893 75.757,50.821C75.907,50.75 76.066,50.714 76.233,50.714ZM84.67,54.927L83.504,54.927L83.504,50L82.54,50L82.54,54.927L81.849,54.927L81.849,55.569L82.54,55.7L82.54,56.843C82.54,57.152 82.583,57.418 82.671,57.64C82.758,57.862 82.873,58.044 83.016,58.187C83.158,58.33 83.325,58.433 83.515,58.497C83.706,58.56 83.908,58.592 84.122,58.592C84.329,58.592 84.503,58.564 84.646,58.509C84.789,58.453 84.884,58.409 84.932,58.378L84.729,57.58C84.682,57.612 84.614,57.646 84.527,57.682C84.44,57.717 84.333,57.735 84.206,57.735C83.976,57.735 83.801,57.664 83.682,57.521C83.563,57.378 83.504,57.116 83.504,56.735L83.504,55.712L84.789,55.712L84.67,54.927ZM89.62,50L88.74,50L88.74,50.643L88.716,50.643C88.692,50.595 88.64,50.526 88.561,50.434C88.482,50.343 88.381,50.256 88.258,50.173C88.135,50.089 87.986,50.016 87.811,49.952C87.637,49.889 87.442,49.857 87.228,49.857C86.974,49.857 86.746,49.895 86.544,49.97C86.342,50.046 86.169,50.167 86.026,50.333C85.884,50.5 85.774,50.716 85.699,50.982C85.624,51.248 85.586,51.575 85.586,51.964L85.586,55.712L86.55,55.712L86.55,52.035C86.55,51.559 86.627,51.22 86.782,51.017C86.937,50.815 87.177,50.714 87.502,50.714C87.78,50.714 88.014,50.783 88.204,50.922C88.394,51.061 88.545,51.198 88.656,51.333L88.656,55.712L89.62,55.712L89.62,50ZM87.252,57.354C87.252,57.172 87.197,57.025 87.085,56.914C86.974,56.803 86.84,56.747 86.681,56.747C86.522,56.747 86.387,56.803 86.276,56.914C86.165,57.025 86.11,57.172 86.11,57.354C86.11,57.537 86.165,57.683 86.276,57.795C86.387,57.906 86.522,57.961 86.681,57.961C86.84,57.961 86.974,57.906 87.085,57.795C87.197,57.683 87.252,57.537 87.252,57.354ZM89.085,57.354C89.085,57.172 89.029,57.025 88.918,56.914C88.807,56.803 88.672,56.747 88.513,56.747C88.355,56.747 88.22,56.803 88.109,56.914C87.998,57.025 87.942,57.172 87.942,57.354C87.942,57.537 87.998,57.683 88.109,57.795C88.22,57.906 88.355,57.961 88.513,57.961C88.672,57.961 88.807,57.906 88.918,57.795C89.029,57.683 89.085,57.537 89.085,57.354ZM93.607,54.867C93.583,54.883 93.531,54.903 93.452,54.927C93.373,54.95 93.266,54.962 93.131,54.962C92.829,54.962 92.593,54.881 92.423,54.718C92.252,54.556 92.131,54.379 92.06,54.189L92.06,50L91.096,50L91.096,55.712L91.976,55.712L91.976,54.939L92,54.939C92.04,55.05 92.091,55.159 92.155,55.266C92.218,55.373 92.298,55.468 92.393,55.551C92.488,55.635 92.601,55.7 92.732,55.748C92.863,55.795 93.019,55.819 93.202,55.819C93.337,55.819 93.446,55.807 93.529,55.783C93.613,55.76 93.678,55.74 93.726,55.724L93.607,54.867ZM102.472,50L101.437,50L101.437,53.737L98.045,53.737L98.045,50L97.01,50L97.01,58.211L98.045,58.211L98.045,54.558L101.437,54.558L101.437,58.211L102.472,58.211L102.472,50ZM107.768,53.784C107.768,53.538 107.76,53.326 107.744,53.148C107.728,52.969 107.712,52.812 107.696,52.678L104.781,52.678C104.812,52.003 104.957,51.507 105.215,51.19C105.473,50.873 105.844,50.714 106.328,50.714C106.494,50.714 106.645,50.734 106.78,50.774C106.915,50.813 107.032,50.861 107.131,50.916C107.23,50.972 107.313,51.027 107.381,51.083C107.448,51.138 107.498,51.182 107.53,51.214L107.887,50.536C107.847,50.496 107.787,50.438 107.708,50.363C107.629,50.288 107.522,50.212 107.387,50.137C107.252,50.062 107.085,49.996 106.887,49.941C106.689,49.885 106.455,49.857 106.185,49.857C105.828,49.857 105.505,49.917 105.215,50.036C104.926,50.155 104.68,50.339 104.477,50.589C104.275,50.839 104.118,51.156 104.007,51.541C103.896,51.926 103.841,52.388 103.841,52.927C103.841,53.435 103.898,53.874 104.013,54.242C104.128,54.611 104.285,54.915 104.483,55.153C104.682,55.391 104.912,55.567 105.173,55.682C105.435,55.797 105.717,55.855 106.018,55.855C106.566,55.855 106.994,55.682 107.304,55.337C107.613,54.992 107.768,54.474 107.768,53.784ZM105.959,55.069C105.618,55.069 105.344,54.927 105.138,54.641C104.931,54.355 104.812,53.943 104.781,53.403L106.863,53.403C106.871,53.443 106.877,53.501 106.881,53.576C106.885,53.651 106.887,53.733 106.887,53.82C106.887,54.217 106.808,54.524 106.649,54.742C106.49,54.96 106.26,55.069 105.959,55.069ZM110.017,50L109.053,50L109.053,55.712L110.017,55.712L110.017,50ZM109.541,57.092C109.342,57.092 109.184,57.156 109.065,57.283C108.946,57.41 108.886,57.576 108.886,57.783C108.886,57.981 108.946,58.144 109.065,58.271C109.184,58.397 109.342,58.461 109.541,58.461C109.731,58.461 109.886,58.397 110.005,58.271C110.124,58.144 110.183,57.981 110.183,57.783C110.183,57.576 110.124,57.41 110.005,57.283C109.886,57.156 109.731,57.092 109.541,57.092ZM114.491,50L114.491,53.677C114.491,54.145 114.424,54.482 114.289,54.689C114.154,54.895 113.936,54.998 113.634,54.998C113.476,54.998 113.335,54.978 113.212,54.939C113.089,54.899 112.98,54.849 112.885,54.79C112.789,54.73 112.706,54.665 112.635,54.593C112.563,54.522 112.504,54.459 112.456,54.403L112.456,50L111.492,50L111.492,55.712L112.373,55.712L112.373,55.069L112.397,55.069C112.436,55.133 112.496,55.21 112.575,55.301C112.655,55.393 112.754,55.48 112.873,55.563C112.992,55.647 113.131,55.716 113.289,55.772C113.448,55.827 113.626,55.855 113.825,55.855C114.475,55.855 114.935,55.601 115.205,55.093C115.261,55.173 115.336,55.258 115.431,55.349C115.526,55.44 115.638,55.524 115.764,55.599C115.891,55.674 116.034,55.736 116.193,55.783C116.352,55.831 116.526,55.855 116.716,55.855C117.875,55.855 118.454,55.181 118.454,53.832L118.454,50L117.49,50L117.49,53.677C117.49,54.145 117.407,54.482 117.24,54.689C117.073,54.895 116.828,54.998 116.502,54.998C116.233,54.998 116.008,54.932 115.83,54.802C115.651,54.671 115.51,54.546 115.407,54.427C115.423,54.34 115.435,54.246 115.443,54.147C115.451,54.048 115.455,53.943 115.455,53.832L115.455,50L114.491,50ZM119.561,51.452C119.561,51.785 119.624,52.063 119.751,52.285C119.878,52.507 120.048,52.687 120.263,52.826C120.477,52.965 120.729,53.064 121.018,53.124C121.308,53.183 121.615,53.213 121.941,53.213L122.238,53.213L122.238,53.76C122.238,54.244 122.153,54.578 121.982,54.76C121.812,54.943 121.572,55.034 121.262,55.034C120.977,55.034 120.739,54.972 120.548,54.849C120.358,54.726 120.207,54.617 120.096,54.522L119.691,55.165C119.755,55.228 119.836,55.3 119.935,55.379C120.034,55.458 120.156,55.533 120.298,55.605C120.441,55.676 120.604,55.736 120.786,55.783C120.969,55.831 121.175,55.855 121.405,55.855C121.992,55.855 122.436,55.692 122.738,55.367C123.039,55.042 123.19,54.518 123.19,53.796L123.19,51.19C123.19,50.944 123.198,50.704 123.214,50.47C123.23,50.236 123.246,50.079 123.261,50L122.345,50L122.309,50.631L122.286,50.631C122.254,50.559 122.206,50.478 122.143,50.387C122.079,50.295 122,50.212 121.905,50.137C121.81,50.062 121.695,49.996 121.56,49.941C121.425,49.885 121.266,49.857 121.084,49.857C120.87,49.857 120.669,49.897 120.483,49.976C120.296,50.056 120.134,50.167 119.995,50.309C119.856,50.452 119.749,50.621 119.674,50.815C119.598,51.01 119.561,51.222 119.561,51.452ZM121.286,50.678C121.421,50.678 121.54,50.698 121.643,50.738C121.746,50.778 121.835,50.825 121.911,50.881C121.986,50.936 122.05,50.998 122.101,51.065C122.153,51.133 122.198,51.19 122.238,51.238L122.238,52.499L121.929,52.487C121.469,52.471 121.119,52.392 120.881,52.249C120.643,52.106 120.524,51.876 120.524,51.559C120.524,51.265 120.592,51.045 120.727,50.899C120.862,50.752 121.048,50.678 121.286,50.678ZM127.081,54.927L125.832,54.927L125.832,51.761C125.832,51.357 125.883,51.081 125.987,50.934C126.09,50.787 126.264,50.714 126.51,50.714C126.653,50.714 126.776,50.734 126.879,50.774C126.982,50.813 127.058,50.849 127.105,50.881L127.236,50.107C127.196,50.075 127.101,50.026 126.95,49.958C126.8,49.891 126.597,49.857 126.344,49.857C125.852,49.857 125.483,49.994 125.237,50.268C124.991,50.541 124.868,50.996 124.868,51.63L124.868,54.927L124.178,54.927L124.178,55.569L124.868,55.712L124.975,57.307L125.832,57.307L125.832,55.712L127.2,55.712L127.081,54.927Z" style="fill-rule:nonzero;"/>
        </g>
    </g>
</svg>
