<svg width="2268" height="2359" viewBox="0 0 2268 2359" fill="none" xmlns="http://www.w3.org/2000/svg">
<path d="M1304.47 956.92H963.611V1297.72H1304.47V956.92Z" fill="#6633FF"/>
<path d="M963.61 956.92L622.756 1297.65V907.64C622.756 692.084 775.304 517.558 963.61 517.558V956.92Z" fill="url(#paint0_linear)"/>
<path d="M1304.39 1297.65L1645.24 956.92V1347C1645.24 1562.56 1492.62 1737.01 1304.39 1737.01V1297.65Z" fill="url(#paint1_linear)"/>
<path d="M622.756 1297.65H963.61V1396.21C963.61 1486.59 927.699 1573.28 863.776 1637.19C799.854 1701.1 713.156 1737.01 622.756 1737.01V1297.65Z" fill="url(#paint2_linear)"/>
<path d="M963.61 956.92V1297.65H622.756L963.61 956.92Z" fill="#BD81FC"/>
<path d="M1304.39 1297.65V956.92H1645.24L1304.39 1297.65Z" fill="#BD81FC"/>
<path d="M1645.24 956.92H1304.39V858.359C1304.39 767.973 1340.3 681.289 1404.22 617.376C1468.15 553.463 1554.84 517.558 1645.24 517.558V956.92Z" fill="url(#paint3_linear)"/>
<defs>
<linearGradient id="paint0_linear" x1="187.266" y1="1657.7" x2="946.363" y2="657.258" gradientUnits="userSpaceOnUse">
<stop stop-color="#C176FE"/>
<stop offset="0.25" stop-color="#B35FFC"/>
<stop offset="0.51" stop-color="#A244FA"/>
<stop offset="0.62" stop-color="#9B42FB"/>
<stop offset="0.78" stop-color="#893DFC"/>
<stop offset="0.96" stop-color="#6B34FF"/>
<stop offset="0.99" stop-color="#6633FF"/>
</linearGradient>
<linearGradient id="paint1_linear" x1="1824.93" y1="480.764" x2="1377.22" y2="1611.37" gradientUnits="userSpaceOnUse">
<stop stop-color="#C176FE"/>
<stop offset="0.23" stop-color="#B35FFC"/>
<stop offset="0.45" stop-color="#A244FA"/>
<stop offset="0.58" stop-color="#9B42FB"/>
<stop offset="0.75" stop-color="#893DFC"/>
<stop offset="0.96" stop-color="#6B34FF"/>
<stop offset="0.99" stop-color="#6633FF"/>
</linearGradient>
<linearGradient id="paint2_linear" x1="594.5" y1="1298" x2="916" y2="1631" gradientUnits="userSpaceOnUse">
<stop stop-color="#BB6DFD"/>
<stop offset="1" stop-color="#9B42FB"/>
</linearGradient>
<linearGradient id="paint3_linear" x1="1558" y1="890" x2="1304" y2="629" gradientUnits="userSpaceOnUse">
<stop stop-color="#B869FD"/>
<stop offset="1" stop-color="#A14AFB"/>
</linearGradient>
</defs>
</svg>
