<svg height="338" viewBox="0 0 1217 338" width="1217" xmlns="http://www.w3.org/2000/svg" xmlns:xlink="http://www.w3.org/1999/xlink"><linearGradient id="a" x1="12.409%" x2="64.895%" y1="51.532%" y2="49.461%"><stop offset="0" stop-color="#00a6f7"/><stop offset=".11" stop-color="#0ff"/><stop offset=".15" stop-color="#13f7ee"/><stop offset=".22" stop-color="#46e2c2"/><stop offset=".32" stop-color="#96bf7a"/><stop offset=".45" stop-color="#ff931e"/><stop offset=".55" stop-color="#f87821"/><stop offset=".64" stop-color="#f36223"/><stop offset="1" stop-color="#f15a24"/></linearGradient><g fill="none"><g fill="#000"><path d="m125.970007 201.04-19.735301-.04-57.5263032-103.92v157.92h-48.7084028v-255h39.2606522c5.2782352.00314288 10.1561184 2.78043781 12.8576522 7.29461863l.1892414.32538137 73.6924542 130.38 73.692454-130.38c2.658722-4.7057374 7.642986-7.61678229 13.046894-7.62h39.260652v255h-48.708403v-157.92l-57.526303 103.92z"/><path d="m287.73 167.34c0-63.21 45.87-91.8 92.82-91.8s92.16 28.59 87 104.16l-131.67 1.41c0 13.77 13.05 36.36 42 38.13 16.89 1.11 28.86-4.95 36.93-15 3.842666-4.842489 10.262582-6.83159 16.17-5.01l32.7 10.08c-8.82 21.54-36.36 49.080017-82.26 49.080017-56.64.029983-93.69-40.560017-93.69-91.050017zm130.95-21.54c0-16.59-17.64-34.59-45.18-32.82-16.59 1.05-35.64 13.41-37.77 33.18z"/><path d="m604.74 132.75c-5.64-14.49-23.31-19.77-32.82-19.77-12 0-25.8 4.92-25.8 14.1 0 13.08 15.9 15 52.62 23.67 38.13 9.18 49.77 32.13 49.77 55.41s-24 54.84-75.18 54.84c-46.95 0-70.62-27.18-79.44-49.41l41.64-18c5.029186 12.823393 15.948315 22.423733 29.31 25.77 14.13 3.18 35.67-1.08 37.08-14.13 2.1-20.49-42.36-21.9-60.36-27.54-21.54-6.69-40.98-25.41-40.98-45.9 0-26.13 22.95-54.72 63.21-59.64 26.82-3.15 68.49 10.47 81.21 44.01z"/><path d="m855.39 79.44c-.36 59.31.69 126.36.69 162.39 0 50.49-29.64 89.31-86.13 93.54-28.95 2.13-69.9-11.28-90-58.95l36.63-7.77c5.741957-1.093394 11.596096 1.248261 15 6 9 12 20.28 17.76 32.34 17.76 18.72 0 44.13-10.59 44.13-58.26-25.41 27.18-63.54 21.9-88.62 7.77-25.77-14.49-45.87-45-42.36-87.21 6-71.67 81.21-104.13 132-62.13l1.41-13.41zm-91.44 130.26c20.82 0 44.13-12.36 44.13-46.26s-26.13-47.64-46.95-44.82-37.41 18.72-37.41 44.82 18.69 46.26 40.23 46.26z"/><path d="m892.08 231.69c.149166-13.183349 10.904878-23.778016 24.088978-23.728467 13.184099.049897 23.859592 10.72539 23.909489 23.909489.049549 13.1841-10.545118 23.939812-23.728467 24.088978-13.403951 0-24.27-10.866049-24.27-24.27z"/><path d="m1168.5 26.55c.14917-13.1833494 10.90488-23.77801614 24.08898-23.72846749 13.1841.04989726 23.85959 10.72539039 23.90949 23.90948989.04955 13.1840995-10.54512 23.9398116-23.72847 24.0889776-13.3971-.0165294-24.25347-10.8729018-24.27-24.27z"/><path d="m975 213.93c-3.87-38.46 22.95-55.77 61.08-60.72 17.28-2.46 37.77-4.23 42.72-8.13s8.82-24-15.54-30.33c-18.33-4.68-33.54.99-40.71 15.78-3.07511 6.066679-9.84728 9.30501-16.5 7.89l-28.23-6c2.49-14.49 12-33.54 37.08-47.67 18-10.23 47.67-13.77 72-4.59 32.13 12 45.9 34.62 45.9 59.31l1.05 115.8h-46.35l-1.5-20.16c-11.17633 16.036665-29.53344 25.540618-49.08 25.411329-37.32 0-58.14-18.001329-61.92-46.591329zm111.9-30.72c-37.77 6-65.64-2.46-65.64 21.18 0 16.95 15.18 23.31 36 19.08 22.47-4.47 32.01-22.47 29.52-40.26z"/><path d="m1216.35 79.44v176.52h-34.08c-8.28427 0-15-6.715729-15-15v-161.52z"/></g><path d="m650.07 290.49h-626.07c-12.8737575 0-23.31 10.436242-23.31 23.31s10.4362425 23.31 23.31 23.31h658.92c-14.185977-12.987332-25.392583-28.891501-32.85-46.62z" fill="url(#a)"/><path d="m855.39 79.44c-.36 59.31.69 126.36.69 162.39 0 50.49-29.64 89.31-86.13 93.54-28.95 2.13-69.9-11.28-90-58.95l36.63-7.77c5.741957-1.093394 11.596096 1.248261 15 6 9 12 20.28 17.76 32.34 17.76 18.72 0 44.13-10.59 44.13-58.26-25.41 27.18-63.54 21.9-88.62 7.77-25.77-14.49-45.87-45-42.36-87.21 6-71.67 81.21-104.13 132-62.13l1.41-13.41zm-91.44 130.26c20.82 0 44.13-12.36 44.13-46.26s-26.13-47.64-46.95-44.82-37.41 18.72-37.41 44.82 18.69 46.26 40.23 46.26z" fill="#000"/></g></svg>